<svg xmlns="http://www.w3.org/2000/svg" viewBox="0 0 202.53 202.55"><defs><style>.cls-1{fill:#fff;}</style></defs><g id="Layer_2" data-name="Layer 2"><g id="Layer_1-2" data-name="Layer 1"><g id="Layer_2-2" data-name="Layer 2"><g id="Layer_1-2-2" data-name="Layer 1-2"><path class="cls-1" d="M103.2,24.25a2.82,2.82,0,1,1-4,3.92,3,3,0,0,1-.32-.39,2.67,2.67,0,0,1-.42-1.46,3.17,3.17,0,0,1,.91-2.18l1.88-1.89Zm-4.37,39.5L72.45,37.35a15.5,15.5,0,0,1,21-22.76l-2,2a13.74,13.74,0,0,0-4,9.69h0a13.71,13.71,0,0,0,17,13.32,12.74,12.74,0,0,0,3.61-1.46,13.73,13.73,0,0,0,6.88-11.9,13.57,13.57,0,0,0-4-9.69l-2-2a15.51,15.51,0,0,1,21,22.77l-26.1,26.17h0L88.38,79,76.13,91.21l7.7,7.69L94.77,88l15.46-15.5,27.44-27.45A26.4,26.4,0,0,0,101.2,6.89,26.4,26.4,0,0,0,64.74,45.05l26.39,26.4Z"></path><path class="cls-1" d="M22.49,101.28l2-2a2.82,2.82,0,0,1,4,0h0a2.74,2.74,0,0,1,.82,2A2.82,2.82,0,0,1,28,103.65a2.93,2.93,0,0,1-3.64-.49ZM45,137.74l26.38-26.39-7.69-7.7L37.28,130a15.5,15.5,0,0,1-22.76-21l1.75,1.74c4.94,4.94,13.25,5.47,18.52,1.19A13.73,13.73,0,0,0,39.26,97.1a9.87,9.87,0,0,0-.76-1.88A13.72,13.72,0,0,0,20.11,89a13.93,13.93,0,0,0-3.61,2.58l-2,2a15.51,15.51,0,0,1,22.76-21L66,101.35l7.7,7.7,17.38,17.37,7.7-7.7-12.87-13L70.47,90.3,45,64.81a26.58,26.58,0,0,0-19.69-7.7,26.18,26.18,0,0,0-19,9.2c-8.56,10-8.2,25,.58,35A26.4,26.4,0,0,0,45,137.79"></path><path class="cls-1" d="M180.23,101.28l-1.89,1.89a3,3,0,0,1-3.64.48,2.83,2.83,0,0,1-.82-3.91,3.08,3.08,0,0,1,.82-.83,2.91,2.91,0,0,1,3.64.48Zm-22.8-36.46L131,91.2l7.69,7.71,26.4-26.39a15.51,15.51,0,0,1,22.77,21l-1.76-1.75c-4.94-4.94-13.25-5.47-18.52-1.18a13.73,13.73,0,0,0-4.47,14.83,10.53,10.53,0,0,0,.75,1.88,13.75,13.75,0,0,0,18.38,6.31,13.35,13.35,0,0,0,3.66-2.61l2-2a15.51,15.51,0,0,1-22.77,21l-25.53-25.54-3.24-3.23-7.7-7.7L111.28,76.2l-7.7,7.7,7.5,7.5,5.36,5.36,15.5,15.46,25.54,25.53a26.4,26.4,0,0,0,38.16-36.47,26.4,26.4,0,0,0-38.16-36.46"></path><path class="cls-1" d="M99.33,178.42a3,3,0,0,1-.34-3.86,2.84,2.84,0,0,1,4-.45,2.4,2.4,0,0,1,.45.45,3,3,0,0,1-.33,3.86l-1.88,1.88Zm4.25-39.62,26.36,26.4a15.51,15.51,0,0,1-21,22.8l2-2a13.73,13.73,0,0,0,0-19.42,14,14,0,0,0-2.92-2.21,12.11,12.11,0,0,0-3.49-1.38,13.72,13.72,0,0,0-13,23l2,2a15.51,15.51,0,0,1-21-22.77l24.7-24.71h0L112.6,125h0l13.68-13.69-7.7-7.7-13.83,13.83-15.46,15.5L64.74,157.5a26.4,26.4,0,0,0,36.47,38.16,26.4,26.4,0,0,0,36.46-38.16l-26.39-26.4Z"></path></g></g></g></g></svg>